<svg width="25" height="22" viewBox="0 0 25 22" fill="none" xmlns="http://www.w3.org/2000/svg">
<path d="M15.0586 19.6543V13.3164C15.0586 13.0885 14.9902 12.9062 14.8535 12.7695C14.7168 12.6328 14.5345 12.5645 14.3066 12.5645H10.6934C10.4655 12.5645 10.2799 12.6328 10.1367 12.7695C10 12.9062 9.93164 13.0885 9.93164 13.3164V19.6543H15.0586ZM3.74023 19.3223V11.8809L11.9043 5.03516C12.3014 4.69661 12.7018 4.69661 13.1055 5.03516L21.2695 11.8809V19.3223C21.2695 20.0254 21.0612 20.5755 20.6445 20.9727C20.2279 21.3698 19.6615 21.5684 18.9453 21.5684H6.06445C5.3418 21.5684 4.77214 21.3698 4.35547 20.9727C3.94531 20.5755 3.74023 20.0254 3.74023 19.3223ZM0.576172 10.543C0.576172 10.2435 0.703125 9.98633 0.957031 9.77148L11.1328 1.22656C11.556 0.875 12.015 0.699219 12.5098 0.699219C13.0046 0.699219 13.4603 0.875 13.877 1.22656L24.043 9.77148C24.2969 9.97982 24.4238 10.2467 24.4238 10.5723C24.4238 10.8522 24.3262 11.0736 24.1309 11.2363C23.9421 11.3991 23.7077 11.4805 23.4277 11.4805C23.278 11.4805 23.1348 11.4447 22.998 11.373C22.8613 11.3014 22.7344 11.2201 22.6172 11.1289L12.9297 2.99414C12.793 2.87695 12.653 2.81836 12.5098 2.81836C12.3665 2.81836 12.2266 2.87695 12.0898 2.99414L2.39258 11.1289C2.26888 11.2201 2.13867 11.3014 2.00195 11.373C1.87174 11.4447 1.73177 11.4805 1.58203 11.4805C1.26953 11.4805 1.02214 11.3893 0.839844 11.207C0.664062 11.0182 0.576172 10.7969 0.576172 10.543ZM18.5352 5.80664V3.41406C18.5352 3.19922 18.6003 3.02669 18.7305 2.89648C18.8672 2.75977 19.043 2.69141 19.2578 2.69141H20.5762C20.7975 2.69141 20.9733 2.75977 21.1035 2.89648C21.2337 3.02669 21.2988 3.19922 21.2988 3.41406V8.13086L18.5352 5.80664Z" fill="#1F1F1F" fill-opacity="0.8"/>
</svg>
