<svg width="18" height="25" viewBox="0 0 18 25" fill="none" xmlns="http://www.w3.org/2000/svg">
<path d="M4.69336 11.7871H13.3066C13.5085 11.7871 13.6777 11.7188 13.8145 11.582C13.9577 11.4388 14.0293 11.2695 14.0293 11.0742C14.0293 10.8724 13.9577 10.6999 13.8145 10.5566C13.6777 10.4134 13.5085 10.3418 13.3066 10.3418H4.69336C4.49154 10.3418 4.31901 10.4134 4.17578 10.5566C4.03906 10.6999 3.9707 10.8724 3.9707 11.0742C3.9707 11.2695 4.03906 11.4388 4.17578 11.582C4.31901 11.7188 4.49154 11.7871 4.69336 11.7871ZM4.69336 15.3809H13.3066C13.5085 15.3809 13.6777 15.3125 13.8145 15.1758C13.9577 15.0326 14.0293 14.86 14.0293 14.6582C14.0293 14.4564 13.9577 14.2871 13.8145 14.1504C13.6777 14.0137 13.5085 13.9453 13.3066 13.9453H4.69336C4.49154 13.9453 4.31901 14.0137 4.17578 14.1504C4.03906 14.2871 3.9707 14.4564 3.9707 14.6582C3.9707 14.86 4.03906 15.0326 4.17578 15.1758C4.31901 15.3125 4.49154 15.3809 4.69336 15.3809ZM4.69336 19.1797H9.10742C9.30273 19.1797 9.47201 19.1081 9.61523 18.9648C9.75846 18.8151 9.83008 18.6426 9.83008 18.4473C9.83008 18.2454 9.75846 18.0762 9.61523 17.9395C9.47852 17.8027 9.30924 17.7344 9.10742 17.7344H4.69336C4.49154 17.7344 4.31901 17.8027 4.17578 17.9395C4.03906 18.0762 3.9707 18.2454 3.9707 18.4473C3.9707 18.6426 4.03906 18.8151 4.17578 18.9648C4.31901 19.1081 4.49154 19.1797 4.69336 19.1797ZM3.81445 24.3066C2.7793 24.3066 1.99154 24.0332 1.45117 23.4863C0.910807 22.9395 0.640625 22.1419 0.640625 21.0938V6.30859C0.640625 5.25391 0.907552 4.45312 1.44141 3.90625C1.97526 3.35938 2.74023 3.08594 3.73633 3.08594H3.94141C3.92839 3.13151 3.91536 3.18034 3.90234 3.23242C3.89583 3.28451 3.89258 3.33659 3.89258 3.38867V4.52148C3.89258 5.14648 4.08464 5.66406 4.46875 6.07422C4.85938 6.47786 5.36719 6.67969 5.99219 6.67969H12.0078C12.6328 6.67969 13.1374 6.47786 13.5215 6.07422C13.9121 5.66406 14.1074 5.14648 14.1074 4.52148V3.38867C14.1074 3.33659 14.1009 3.28451 14.0879 3.23242C14.0814 3.18034 14.0716 3.13151 14.0586 3.08594H14.2637C15.2598 3.08594 16.0247 3.35938 16.5586 3.90625C17.0924 4.45312 17.3594 5.25391 17.3594 6.30859V21.0938C17.3594 22.1419 17.0892 22.9395 16.5488 23.4863C16.0085 24.0332 15.2174 24.3066 14.1758 24.3066H3.81445ZM5.99219 5.52734C5.69271 5.52734 5.45833 5.43945 5.28906 5.26367C5.1263 5.08789 5.04492 4.84049 5.04492 4.52148V3.49609C5.04492 3.17708 5.1263 2.92969 5.28906 2.75391C5.45833 2.57812 5.69271 2.49023 5.99219 2.49023H6.82227C6.85482 1.92383 7.07943 1.44206 7.49609 1.04492C7.91276 0.641276 8.41406 0.439453 9 0.439453C9.57943 0.439453 10.0775 0.641276 10.4941 1.04492C10.9173 1.44206 11.1452 1.92383 11.1777 2.49023H12.0078C12.3073 2.49023 12.5384 2.57812 12.7012 2.75391C12.8704 2.92969 12.9551 3.17708 12.9551 3.49609V4.52148C12.9551 4.84049 12.8704 5.08789 12.7012 5.26367C12.5384 5.43945 12.3073 5.52734 12.0078 5.52734H5.99219ZM9 3.4375C9.24089 3.4375 9.44271 3.35286 9.60547 3.18359C9.77474 3.00781 9.85938 2.80599 9.85938 2.57812C9.85938 2.33724 9.77474 2.13216 9.60547 1.96289C9.44271 1.79362 9.24089 1.70898 9 1.70898C8.75911 1.70898 8.55404 1.79362 8.38477 1.96289C8.22201 2.13216 8.14062 2.33724 8.14062 2.57812C8.14062 2.80599 8.22201 3.00781 8.38477 3.18359C8.55404 3.35286 8.75911 3.4375 9 3.4375Z" fill="#1F1F1F" fill-opacity="0.8"/>
</svg>
