<svg width="22" height="22" viewBox="0 0 22 22" fill="none" xmlns="http://www.w3.org/2000/svg">
<path d="M10.9902 20.4512C10.873 20.4512 10.7591 20.4479 10.6484 20.4414C10.5378 20.4414 10.4271 20.4349 10.3164 20.4219L9.78906 21.4277C9.71745 21.5579 9.61979 21.6556 9.49609 21.7207C9.3724 21.7858 9.23568 21.8053 9.08594 21.7793C8.9362 21.7467 8.8125 21.6784 8.71484 21.5742C8.6237 21.4701 8.5651 21.3431 8.53906 21.1934L8.37305 20.0898C8.1582 20.0247 7.94661 19.9531 7.73828 19.875C7.52995 19.8034 7.32161 19.722 7.11328 19.6309L6.29297 20.373C6.17578 20.4707 6.04557 20.5293 5.90234 20.5488C5.76562 20.5684 5.62565 20.5391 5.48242 20.4609C5.35221 20.3893 5.26107 20.2852 5.20898 20.1484C5.16341 20.0182 5.15365 19.8783 5.17969 19.7285L5.39453 18.6445C5.22526 18.5143 5.05273 18.3776 4.87695 18.2344C4.70117 18.0911 4.53516 17.9414 4.37891 17.7852L3.36328 18.2148C3.21354 18.2799 3.06706 18.293 2.92383 18.2539C2.78711 18.2148 2.66667 18.1335 2.5625 18.0098C2.47135 17.8991 2.41927 17.7721 2.40625 17.6289C2.39974 17.4857 2.43555 17.349 2.51367 17.2188L3.09961 16.2617C2.98242 16.0859 2.86849 15.9004 2.75781 15.7051C2.64714 15.5098 2.53971 15.3112 2.43555 15.1094L1.32227 15.1484C1.17253 15.1615 1.03581 15.1289 0.912109 15.0508C0.788411 14.9727 0.703776 14.8587 0.658203 14.709C0.61263 14.5658 0.609375 14.429 0.648438 14.2988C0.69401 14.1621 0.775391 14.0449 0.892578 13.9473L1.76172 13.2539C1.70312 13.0391 1.6543 12.8242 1.61523 12.6094C1.58268 12.388 1.55664 12.1602 1.53711 11.9258L0.472656 11.584C0.322917 11.5384 0.205729 11.4603 0.121094 11.3496C0.0429688 11.2324 0.00390625 11.099 0.00390625 10.9492C0.00390625 10.793 0.0429688 10.6595 0.121094 10.5488C0.205729 10.4382 0.322917 10.36 0.472656 10.3145L1.53711 9.97266C1.55664 9.73828 1.58268 9.51367 1.61523 9.29883C1.6543 9.07747 1.70312 8.85938 1.76172 8.64453L0.892578 7.94141C0.775391 7.85026 0.69401 7.73958 0.648438 7.60938C0.609375 7.47266 0.61263 7.33594 0.658203 7.19922C0.703776 7.04948 0.788411 6.93555 0.912109 6.85742C1.03581 6.7793 1.17253 6.74674 1.32227 6.75977L2.43555 6.78906C2.53971 6.58724 2.64714 6.39193 2.75781 6.20312C2.86849 6.00781 2.98242 5.8125 3.09961 5.61719L2.50391 4.66992C2.43229 4.54622 2.39974 4.41602 2.40625 4.2793C2.41927 4.13607 2.47135 4.00911 2.5625 3.89844C2.66667 3.77474 2.78711 3.69661 2.92383 3.66406C3.06055 3.625 3.20378 3.63477 3.35352 3.69336L4.37891 4.10352C4.54167 3.96029 4.70768 3.81706 4.87695 3.67383C5.05273 3.52409 5.22526 3.38411 5.39453 3.25391L5.17969 2.17969C5.14714 2.01693 5.1569 1.87044 5.20898 1.74023C5.26107 1.61003 5.34896 1.51237 5.47266 1.44727C5.61589 1.36914 5.75911 1.33984 5.90234 1.35938C6.04557 1.3724 6.17578 1.43424 6.29297 1.54492L7.11328 2.25781C7.32161 2.17318 7.52995 2.09505 7.73828 2.02344C7.94661 1.94531 8.1582 1.8737 8.37305 1.80859L8.53906 0.714844C8.5651 0.565104 8.6237 0.438151 8.71484 0.333984C8.8125 0.229818 8.93294 0.164714 9.07617 0.138672C9.23242 0.10612 9.3724 0.122396 9.49609 0.1875C9.61979 0.252604 9.71745 0.347005 9.78906 0.470703L10.3164 1.47656C10.4336 1.46354 10.5443 1.45703 10.6484 1.45703C10.7591 1.45052 10.873 1.44727 10.9902 1.44727C11.1009 1.44727 11.2116 1.45052 11.3223 1.45703C11.4329 1.45703 11.5469 1.46354 11.6641 1.47656L12.1914 0.470703C12.2565 0.347005 12.3509 0.252604 12.4746 0.1875C12.6048 0.122396 12.7448 0.102865 12.8945 0.128906C13.0443 0.161458 13.168 0.229818 13.2656 0.333984C13.3633 0.438151 13.4219 0.565104 13.4414 0.714844L13.6074 1.81836C13.8158 1.87695 14.0241 1.94531 14.2324 2.02344C14.4473 2.09505 14.6556 2.17318 14.8574 2.25781L15.6875 1.53516C15.7982 1.43099 15.9251 1.3724 16.0684 1.35938C16.2116 1.33984 16.3548 1.36914 16.498 1.44727C16.6217 1.51237 16.7096 1.61003 16.7617 1.74023C16.8203 1.87044 16.8333 2.01693 16.8008 2.17969L16.5762 3.25391C16.7454 3.38411 16.918 3.52409 17.0938 3.67383C17.2695 3.81706 17.4355 3.96029 17.5918 4.10352L18.627 3.69336C18.7702 3.63477 18.9102 3.625 19.0469 3.66406C19.1901 3.69661 19.3138 3.77474 19.418 3.89844C19.5026 4.00911 19.5514 4.13607 19.5645 4.2793C19.5775 4.41602 19.5449 4.54622 19.4668 4.66992L18.8711 5.61719C19.1185 5.99479 19.3431 6.38542 19.5449 6.78906L20.6582 6.75977C20.8079 6.74674 20.9447 6.7793 21.0684 6.85742C21.1921 6.93555 21.2767 7.04948 21.3223 7.19922C21.3678 7.33594 21.3678 7.47266 21.3223 7.60938C21.2767 7.73958 21.1986 7.85026 21.0879 7.94141L20.2188 8.64453C20.2708 8.85938 20.3164 9.07747 20.3555 9.29883C20.3945 9.51367 20.4238 9.73828 20.4434 9.97266L21.498 10.3145C21.8301 10.4186 21.9961 10.6302 21.9961 10.9492C21.9961 11.2617 21.8301 11.4733 21.498 11.584L20.4434 11.9258C20.4238 12.1602 20.3945 12.388 20.3555 12.6094C20.3164 12.8242 20.2708 13.0391 20.2188 13.2539L21.0879 13.9473C21.1986 14.0384 21.2767 14.1556 21.3223 14.2988C21.3678 14.4355 21.3678 14.5723 21.3223 14.709C21.2767 14.8587 21.1921 14.9727 21.0684 15.0508C20.9447 15.1289 20.8079 15.1615 20.6582 15.1484L19.5449 15.1094C19.4408 15.3112 19.3333 15.5098 19.2227 15.7051C19.112 15.9004 18.9948 16.0859 18.8711 16.2617L19.4668 17.2188C19.5449 17.349 19.5775 17.4857 19.5645 17.6289C19.5514 17.7721 19.5026 17.8991 19.418 18.0098C19.3138 18.1335 19.1901 18.2148 19.0469 18.2539C18.9102 18.293 18.7669 18.2799 18.6172 18.2148L17.5918 17.7852C17.4355 17.9414 17.2695 18.0911 17.0938 18.2344C16.918 18.3776 16.7454 18.5143 16.5762 18.6445L16.8008 19.7285C16.8789 20.0475 16.778 20.2917 16.498 20.4609C16.3548 20.5391 16.2116 20.5684 16.0684 20.5488C15.9251 20.5293 15.7982 20.4674 15.6875 20.3633L14.8574 19.6309C14.6556 19.722 14.4505 19.8034 14.2422 19.875C14.0339 19.9531 13.8223 20.0215 13.6074 20.0801L13.4414 21.1934C13.4219 21.3431 13.3633 21.4701 13.2656 21.5742C13.168 21.6784 13.0443 21.7435 12.8945 21.7695C12.7448 21.8021 12.6048 21.7858 12.4746 21.7207C12.3509 21.6556 12.2565 21.5579 12.1914 21.4277L11.6641 20.4219C11.5469 20.4349 11.4329 20.4414 11.3223 20.4414C11.2116 20.4479 11.1009 20.4512 10.9902 20.4512ZM10.9902 18.5957C12.0579 18.5957 13.0508 18.4004 13.9688 18.0098C14.8932 17.6191 15.6973 17.0755 16.3809 16.3789C17.071 15.6758 17.6081 14.862 17.9922 13.9375C18.3763 13.013 18.5684 12.0202 18.5684 10.959C18.5684 9.89128 18.3763 8.89518 17.9922 7.9707C17.6081 7.04622 17.071 6.23568 16.3809 5.53906C15.6973 4.83594 14.8932 4.28581 13.9688 3.88867C13.0508 3.49154 12.0579 3.29297 10.9902 3.29297C9.92904 3.29297 8.9362 3.49154 8.01172 3.88867C7.09375 4.28581 6.29297 4.83594 5.60938 5.53906C4.92578 6.23568 4.39193 7.04622 4.00781 7.9707C3.6237 8.89518 3.43164 9.89128 3.43164 10.959C3.43164 12.0202 3.6237 13.013 4.00781 13.9375C4.39193 14.862 4.92578 15.6758 5.60938 16.3789C6.29297 17.0755 7.09375 17.6191 8.01172 18.0098C8.9362 18.4004 9.92904 18.5957 10.9902 18.5957ZM9.125 9.38672L5.88281 3.83984L7.30859 3.08789L10.4727 8.53711L9.125 9.38672ZM13.3047 11.7305V10.1387H19.6328V11.7305H13.3047ZM10.4824 13.3906L7.19141 18.8008L5.78516 18.0098L9.14453 12.5117L10.4824 13.3906ZM10.9707 13.6836C10.4694 13.6836 10.0137 13.5632 9.60352 13.3223C9.19336 13.0749 8.86458 12.7461 8.61719 12.3359C8.3763 11.9193 8.25586 11.4635 8.25586 10.9688C8.25586 10.4609 8.3763 10.002 8.61719 9.5918C8.86458 9.18164 9.19336 8.85612 9.60352 8.61523C10.0137 8.36784 10.4694 8.24414 10.9707 8.24414C11.472 8.24414 11.9277 8.36784 12.3379 8.61523C12.7546 8.85612 13.0833 9.18164 13.3242 9.5918C13.5716 10.002 13.6953 10.4609 13.6953 10.9688C13.6953 11.4635 13.5716 11.9193 13.3242 12.3359C13.0833 12.7461 12.7546 13.0749 12.3379 13.3223C11.9277 13.5632 11.472 13.6836 10.9707 13.6836ZM10.9707 12.0625C11.2897 12.0625 11.5534 11.9583 11.7617 11.75C11.9766 11.5417 12.084 11.2812 12.084 10.9688C12.084 10.6497 11.9766 10.3861 11.7617 10.1777C11.5534 9.96289 11.2897 9.85547 10.9707 9.85547C10.6647 9.85547 10.4043 9.96289 10.1895 10.1777C9.97461 10.3861 9.86719 10.6497 9.86719 10.9688C9.86719 11.2812 9.97461 11.5417 10.1895 11.75C10.4043 11.9583 10.6647 12.0625 10.9707 12.0625Z" fill="#1F1F1F" fill-opacity="0.8"/>
</svg>
